<svg xmlns="http://www.w3.org/2000/svg" width="32" height="32" viewBox="0 0 949.3 949.3"><path d="M899.3 338l-355.3-.3s20.6-84.3 24.3-123.8c2.5-27 3-54-3-81-9.3-40-19.6-65-36-96-8.8-16.5-25.8-26.7-44.3-26.7h-68.8c-27.7 0-50 22.5-50 50.2.2 46.2.2 108-.8 110-27 57-58.3 111.4-93.6 163.4-16 24-33 47-52.6 68-8.6 9.2-13.3 21.4-13.3 34v437c0 13 5 25.5 14 35 13 13.6 37 30 76.2 30 124.3-.5 325.7-1.6 469-.6 17.8 0 34.4-9.4 43.4-25l126.3-216c8.6-15 13-32 13.2-49.4l.7-259c0-27.7-22.5-50-50-50zM94.8 409.5H50c-27.6 0-50 22.4-50 50v429c0 27.6 22.4 50 50 50h44.7c27.6 0 50-22.4 50-50v-429c0-27.6-22.3-50-50-50z" fill="#27ae60"/></svg>