<svg xmlns="http://www.w3.org/2000/svg" width="32" height="32" viewBox="0 0 949.3 949.3"><path d="M49.4 610.7l355.3.3s-20.6 84.3-24.3 123.8c-2.5 27-3 54 3 81 9.3 40 19.6 65 36 96 8.8 16.5 25.8 26.7 44.3 26.7h68.8c27.7 0 50-22.5 50-50.2-.2-46.2-.2-108 .8-110 27-57 58.3-111.4 93.6-163.4 16-24 33-47 52.4-68 8.6-9.4 13.3-21.6 13.3-34V76c0-13-5-25.6-14-35-13-13.7-37-30-76.2-30-124.3.4-325.7 1.5-469 .5-17.8 0-34.4 9.4-43.4 25l-126 216c-8.7 15-13 32-13.3 49.4L0 561c0 27.6 22.5 50 50 50zM854 539.2h44.7c27.6 0 50-22.4 50-50v-429c0-27.6-22.4-50-50-50H854c-27.6 0-50 22.4-50 50v429c0 27.6 22.3 50 50 50z" fill="#c0392b"/></svg>